# xmcd CD database file
#
# Track frame offsets:
#	150
#	18517
#	34447
#	50727
#	72644
#	88919
#	107399
#	122869
#	135912
#	150537
#	167932
#	185417
#	201374
#	217412
#	233779
#	249777
#	268789
#	288292
#	305845
#
# Disc length: 4362 seconds
#
# Revision: 3
# Processed by: cddbd v1.5.2PL0 Copyright (c) Steve Scherf et al.
# Submitted via: CDex 1.70beta2
#
DISCID=24110813
DTITLE=Shania Twain - Greatest Hits (Chinese Edition-CD4)
DYEAR=2006
DGENRE=Country
TTITLE0=Any Man Of Mine
TTITLE1=You're Still The One
TTITLE2=When
TTITLE3=Black Eyes Blue Tears
TTITLE4=Frome This Moment On
TTITLE5=I Won't Leave You Lonely
TTITLE6=I'm Holdin' On To Love (To Save My Life)
TTITLE7=Come On Over
TTITLE8=You've Got A Way
TTITLE9=Whatever You Do Don't
TTITLE10=Man I Fell Like A Woman
TTITLE11=Love Gets Me Every Time
TTITLE12=Don't Be Stupid (You Know I Love You)
TTITLE13=That Don't Impress Me Much
TTITLE14=Honey I'm Home
TTITLE15=If You Wanna Touch Her Ask
TTITLE16=Rock This Country
TTITLE17=God Bless The Child
TTITLE18=Don't Be Stupid (Extended Dance Mix)
EXTD=YEAR: 2006
EXTT0=
EXTT1=
EXTT2=
EXTT3=
EXTT4=
EXTT5=
EXTT6=
EXTT7=
EXTT8=
EXTT9=
EXTT10=
EXTT11=
EXTT12=
EXTT13=
EXTT14=
EXTT15=
EXTT16=
EXTT17=
EXTT18=
PLAYORDER=
